<?xml version="1.0"?>
<svg version="1.1" xmlns="http://www.w3.org/2000/svg" xmlns:xlink="http://www.w3.org/1999/xlink" width="96" height="96">
    <desc iVinci="yes" version="4.6" gridStep="20" showGrid="no" snapToGrid="no" codePlatform="0"/>
    <g id="Layer1" name="Layer 1" opacity="1">
        <g id="Shape1">
            <desc shapeID="1" type="0" basicInfo-basicType="0" basicInfo-roundedRectRadius="12" basicInfo-polygonSides="6" basicInfo-starPoints="5" bounding="rect(-22.0003,-30,44.0006,60)" text="" font-familyName="" font-pixelSize="20" font-bold="0" font-underline="0" font-alignment="1" strokeStyle="0" markerStart="0" markerEnd="0" shadowEnabled="0" shadowOffsetX="0" shadowOffsetY="2" shadowBlur="4" shadowOpacity="160" blurEnabled="0" blurRadius="4" transform="matrix(1.22326,0,0,1.22326,48,53.3021)" pers-center="0,0" pers-size="0,0" pers-start="0,0" pers-end="0,0" locked="0" mesh="" flag=""/>
            <path id="shapePath1" d="M74.5167,61.1432 C74.0494,60.4227 73.2653,60.0337 72.4653,60.0325 L72.4653,48.7699 C72.8971,48.5411 73.3167,48.3038 73.724,48.0591 C74.8825,47.3643 75.258,45.8609 74.5632,44.7025 C74.1045,43.9392 73.2959,43.5245 72.4653,43.5233 L72.4653,26.3902 C72.4653,19.6659 59.7837,16.6041 48,16.6041 C36.2163,16.6041 23.5347,19.6659 23.5347,26.3902 L23.5347,43.5245 C22.7053,43.5257 21.8955,43.9404 21.4368,44.7037 C20.742,45.8622 21.1175,47.3643 22.276,48.0604 C22.6833,48.305 23.1029,48.5411 23.5347,48.7711 L23.5347,60.0337 C22.7347,60.0337 21.9518,60.4227 21.4833,61.1432 C20.7469,62.2759 21.0686,63.7915 22.2013,64.528 C22.6319,64.8081 23.0772,65.0772 23.5347,65.3378 L23.5347,77.7673 C23.5347,84.0562 35.4248,90 48,90 C60.5752,90 72.4653,84.0562 72.4653,77.7673 L72.4653,65.3378 C72.9216,65.076 73.3681,64.8069 73.7986,64.528 C74.9314,63.7915 75.2531,62.2759 74.5167,61.1432 M67.5722,45.664 C56.6154,50.1595 39.3858,50.1595 28.4278,45.664 L28.4278,32.5726 C33.1973,35.0191 40.7656,36.1763 48,36.1763 C55.2344,36.1763 62.8027,35.0191 67.5722,32.5726 L67.5722,45.664 M48,21.4972 C60.8431,21.4972 67.5722,25.1327 67.5722,26.3902 C67.5722,27.6477 60.8431,31.2833 48,31.2833 C35.1569,31.2833 28.4278,27.6477 28.4278,26.3902 C28.4278,25.1327 35.1569,21.4972 48,21.4972 M48,53.9027 C54.9127,53.9027 61.8204,52.891 67.5722,50.8775 L67.5722,62.342 C56.6326,67.2326 39.3674,67.2326 28.4278,62.342 L28.4278,50.8775 C34.1796,52.8898 41.0861,53.9027 48,53.9027 M67.5722,77.7673 C67.5722,79.5974 59.6687,85.1069 48,85.1069 C36.3313,85.1069 28.4278,79.5974 28.4278,77.7673 L28.4278,67.6094 C34.1857,69.7819 41.0885,70.8743 48,70.8743 C54.9114,70.8743 61.8143,69.7819 67.5722,67.6094 L67.5722,77.7673 Z" style="stroke:none;fill-rule:evenodd;fill:#000000;fill-opacity:1;"/>
        </g>
    </g>
</svg>
